<svg width="45" height="60" fill="none" xmlns="http://www.w3.org/2000/svg"><circle cx="22.5" cy="30" r="22.5" fill="#FEC110"/><g clip-path="url(#clip0_65_1821)" fill="#2C2C2C"><path d="M-38.067 29.277V23.33l-.89-2.389 1.223.333 1.167 2.056 4.167.445 3.168-.445s12.835-6.167 25.67-6.167c6.724 0 10.386.366 13.814 1.567 1.755.616 3.45 1.444 5.467 2.556v.005c1.735.955 3.702 2.122 6.147 3.528l.533.306c.178.106.361.206.544.311.278.161 8.002.111 13.836 1.056 5.834.944 9.557 3.278 9.557 3.278l.778 1.89.722.666-.555 5.446 1.5 1.889H38.84v-4.995a7.34 7.34 0 00-14.68 0v4.995h-34.724v-4.995a7.34 7.34 0 00-14.68 0v3.962l-14.33-2.351V30.61l1.507-1.333zm56.882 7.168c.439 0 .828-.284.973-.7l1.622-4.862a.591.591 0 00-.372-.745.521.521 0 00-.183-.028h-.967l-1.778 6.335h.705zM-2.672 25.72l19.393.777v-2.166s-6.668-4.835-13.003-4.835h-7.501l1.111 6.224zm-15.447-.334h11.502v-5.89c-4.612 0-12.669 3.5-12.669 3.5l1.167 2.39z"/><path d="M34.208 34.672l.572.01v-.016c0-.428-.084-.85-.245-1.25l-1.128.467c.1.244.155.51.155.777v.012h.646zm-.807.783c-.105.25-.255.477-.444.666l.861.867c.306-.306.544-.667.711-1.061l-1.128-.472zm-.445-2.24l.867-.861a3.284 3.284 0 00-1.062-.717l-.472 1.128c.25.106.478.262.667.45zm-1.455 3.507v1.222a3.21 3.21 0 001.25-.25l-.466-1.128c-.25.106-.517.156-.784.156zm-1.39-2.056a1.39 1.39 0 102.779 0 1.39 1.39 0 00-2.779 0zm1.39-2.056h.006v-1.223H31.5c-.428 0-.85.084-1.245.245l.467 1.134c.245-.106.512-.156.778-.156zm-1.456 3.511l-.867.862a3.33 3.33 0 001.061.711l.467-1.128a2.197 2.197 0 01-.661-.445zm-.855-3.783c-.306.3-.55.661-.717 1.062l1.128.472a2.07 2.07 0 01.45-.667l-.861-.867zm.254 2.317h-1.222v.01c0 .429.084.857.25 1.257l1.128-.467a2.014 2.014 0 01-.155-.784v-.016z"/><path d="M31.501 27.998a6.666 6.666 0 016.668 6.668 6.666 6.666 0 01-6.668 6.667 6.666 6.666 0 01-6.668-6.667 6.666 6.666 0 016.668-6.668zm0 10.335a3.664 3.664 0 003.667-3.667 3.664 3.664 0 00-3.667-3.668 3.664 3.664 0 00-3.667 3.668 3.664 3.664 0 003.667 3.667z"/><path d="M34.208 34.672l.572.01v-.016c0-.428-.084-.85-.245-1.25l-1.128.467c.1.244.155.51.155.777v.012h.646zm-.807.783c-.105.25-.255.477-.444.666l.861.867c.306-.306.544-.667.711-1.061l-1.128-.472zm-.445-2.24l.867-.861a3.284 3.284 0 00-1.062-.717l-.472 1.128c.25.106.478.262.667.45zm-1.455 3.507v1.222a3.21 3.21 0 001.25-.25l-.466-1.128c-.25.106-.517.156-.784.156zm-1.39-2.056a1.39 1.39 0 102.779 0 1.39 1.39 0 00-2.779 0zm1.39-2.056h.006v-1.223H31.5c-.428 0-.85.084-1.245.245l.467 1.134c.245-.106.512-.156.778-.156zm-1.456 3.511l-.867.862a3.33 3.33 0 001.061.711l.467-1.128a2.197 2.197 0 01-.661-.445zm-.439-2.249a2.09 2.09 0 01.45-.667l-.861-.867c-.306.3-.55.661-.717 1.062l1.128.472zm-1.383.783v.01c0 .429.084.857.25 1.257l1.128-.467a2.014 2.014 0 01-.155-.784v-.011h-1.223v-.005z"/><path d="M30.111 34.666a1.39 1.39 0 102.779 0 1.39 1.39 0 00-2.779 0zm1.39 2.056c.267 0 .534-.05.784-.156l.467 1.128c-.395.161-.823.25-1.251.25v-1.222zm-1.456-.6c.189.188.417.344.667.444l-.467 1.128a3.338 3.338 0 01-1.061-.71l.86-.863zm3.356-.667l1.128.472a3.329 3.329 0 01-.71 1.061l-.862-.867c.189-.189.339-.416.444-.666zm-3.956-.789c0 .273.05.54.156.784l-1.128.467a3.24 3.24 0 01-.25-1.256v-.01l1.222-.002v.017zm5.09-1.244c.161.394.245.822.245 1.25v.017l-.572-.011h-.65v-.012c0-.267-.05-.528-.156-.778l1.133-.466zm-5.345-1.084l.861.866a2.02 2.02 0 00-.45.667l-1.128-.472c.172-.395.411-.755.717-1.06zm3.573-.695c.394.167.755.412 1.061.717l-.866.862a2.109 2.109 0 00-.667-.45l.472-1.128zm-1.262-.256h.006v1.223H31.5c-.267 0-.533.05-.778.156l-.467-1.134a3.295 3.295 0 011.245-.245zm-46.693 3.285l.573.01v-.016c0-.428-.084-.85-.245-1.25l-1.128.467c.1.244.155.51.155.777v.012h.645zm-.805.783c-.106.25-.255.477-.45.666l.861.867a3.34 3.34 0 00.712-1.061l-1.123-.472zm-.443-2.24l.866-.861a3.283 3.283 0 00-1.062-.717l-.472 1.128c.25.106.478.262.667.45zm-1.457 3.507l-.006 1.222h.006a3.22 3.22 0 001.25-.25l-.467-1.128c-.25.106-.517.156-.783.156zm-1.39-2.056a1.39 1.39 0 102.778 0 1.39 1.39 0 00-2.778 0zm1.39-2.056h.011v-1.223h-.011c-.428 0-.85.084-1.245.245l.461 1.134c.25-.106.517-.156.784-.156zm-1.457 3.511l-.866.862a3.33 3.33 0 001.061.711l.467-1.128a2.196 2.196 0 01-.662-.445zm-.854-3.783c-.306.3-.55.661-.717 1.062l1.128.472a2.07 2.07 0 01.45-.667l-.861-.867zm.255 2.317h-1.222v.01c0 .429.084.857.25 1.257l1.128-.467a2.014 2.014 0 01-.155-.784v-.016z"/><path d="M-17.897 27.998a6.666 6.666 0 016.668 6.668 6.666 6.666 0 01-6.668 6.667 6.666 6.666 0 01-6.668-6.667 6.666 6.666 0 016.668-6.668zm0 10.335a3.664 3.664 0 003.667-3.667 3.664 3.664 0 00-3.667-3.668 3.664 3.664 0 00-3.667 3.668 3.663 3.663 0 003.667 3.667z"/><path d="M-15.192 34.672l.573.01v-.016c0-.428-.084-.85-.245-1.25l-1.128.467c.1.244.155.51.155.777v.012h.645zm-.805.783c-.106.25-.255.477-.45.666l.861.867a3.34 3.34 0 00.712-1.061l-1.123-.472zm-.443-2.24l.866-.861a3.283 3.283 0 00-1.062-.717l-.472 1.128c.25.106.478.262.667.45zm-1.457 3.507l-.006 1.222h.006a3.22 3.22 0 001.25-.25l-.467-1.128c-.25.106-.517.156-.783.156zm-1.39-2.056a1.39 1.39 0 102.778 0 1.39 1.39 0 00-2.778 0zm1.39-2.056h.011v-1.223h-.011c-.428 0-.85.084-1.245.245l.461 1.134c.25-.106.517-.156.784-.156zm-1.457 3.511l-.866.862a3.33 3.33 0 001.061.711l.467-1.128a2.196 2.196 0 01-.662-.445zm-.438-2.249c.106-.25.255-.473.45-.667l-.861-.867c-.306.3-.55.661-.717 1.062l1.128.472zm-1.383.783v.01c0 .429.084.857.25 1.257l1.128-.467a2.014 2.014 0 01-.155-.784v-.011h-1.223v-.005z"/><path d="M-19.287 34.666a1.39 1.39 0 102.778 0 1.39 1.39 0 00-2.778 0zm1.39 2.056c.266 0 .533-.05.783-.156l.467 1.128c-.394.161-.822.25-1.25.25h-.006l.006-1.222zm-1.457-.6c.19.188.418.344.668.444l-.467 1.128a3.338 3.338 0 01-1.062-.71l.861-.863zm3.357-.667l1.129.473a3.337 3.337 0 01-.712 1.06l-.861-.866a2.1 2.1 0 00.444-.667zm-3.956-.8v.011c0 .273.05.54.156.784l-1.128.467a3.24 3.24 0 01-.25-1.256v-.01l1.222-.002v.006zm5.09-1.233c.161.394.245.822.245 1.25v.017l-.573-.011h-.65v-.012c0-.266-.05-.528-.155-.777l1.133-.468zm-5.345-1.084l.861.866a2.02 2.02 0 00-.45.667l-1.128-.472c.172-.395.41-.755.717-1.06zm3.572-.695c.395.167.756.412 1.061.717l-.866.862a2.109 2.109 0 00-.667-.45l.472-1.128zm-1.261-.256h.011v1.223h-.011c-.267 0-.533.05-.784.156l-.46-1.134a3.294 3.294 0 011.244-.245z"/></g><defs><clipPath id="clip0_65_1821"><rect y="7.5" width="45" height="45" rx="22.5" fill="#fff"/></clipPath></defs></svg>