<svg width="164" height="60" fill="none" xmlns="http://www.w3.org/2000/svg"><path d="M60 38.582l3.267-16.38h3.809l3.247 16.38h-3.184l-.604-3.6H63.87l-.645 3.6H60zm4.183-5.642h2.019l-1.02-6.612-.999 6.612zm7.848 5.642v-16.38h4.266c.736 0 1.416.06 2.04.182a4.537 4.537 0 011.644.647c.486.31.854.742 1.103 1.295.264.539.396 1.247.396 2.123 0 .66-.098 1.227-.292 1.699a2.591 2.591 0 01-.832 1.092c-.36.27-.805.451-1.332.546.652.094 1.2.31 1.644.647.444.337.777.782.999 1.334.222.553.333 1.22.333 2.003 0 .822-.111 1.536-.333 2.143-.208.607-.52 1.106-.937 1.497a4.09 4.09 0 01-1.54.89c-.61.188-1.318.282-2.123.282h-5.036zm3.434-2.345h.957c.86 0 1.45-.21 1.77-.627.332-.418.499-1.045.499-1.881 0-.647-.076-1.16-.23-1.537a1.536 1.536 0 00-.748-.85c-.333-.188-.784-.282-1.353-.282h-.895v5.177zm0-7.422h.853c.597 0 1.048-.08 1.353-.243a1.34 1.34 0 00.624-.768c.125-.35.188-.775.188-1.274s-.09-.897-.27-1.193a1.424 1.424 0 00-.792-.668c-.347-.134-.79-.202-1.332-.202h-.624v4.348zm10.098 9.767V24.69h-2.601v-2.488h8.616v2.488h-2.56v13.892h-3.455zm12.247.223c-1.234 0-2.212-.216-2.934-.647a3.68 3.68 0 01-1.56-1.84c-.306-.81-.459-1.773-.459-2.892v-6.108c0-1.119.153-2.076.458-2.871a3.58 3.58 0 011.561-1.82c.722-.418 1.7-.627 2.935-.627 1.248 0 2.233.216 2.955.647a3.457 3.457 0 011.561 1.82c.319.782.478 1.733.478 2.852v6.107c0 1.119-.159 2.083-.478 2.892a3.551 3.551 0 01-1.561 1.84c-.722.431-1.707.647-2.955.647zm0-2.407c.445 0 .77-.094.979-.283a1.51 1.51 0 00.416-.788 5.27 5.27 0 00.104-1.072V26.51c0-.378-.035-.728-.104-1.052-.07-.323-.208-.58-.416-.768-.208-.203-.534-.304-.978-.304-.417 0-.729.101-.937.304-.208.188-.347.444-.416.768a5.02 5.02 0 00-.104 1.052v7.745c0 .377.028.734.083 1.072.07.323.208.586.416.788.208.189.528.283.958.283zM114.859 42l-.416-3.418h-9.303v-16.38h3.434v14.116h3.247V22.202h3.434v14.116h2.143V42h-2.539zm4.222-3.418v-16.38h7.347v2.306h-3.913v4.347h3.018v2.326h-3.018v5.137h3.955v2.264h-7.389zm9.167 0v-16.38h3.434v6.734h2.977v-6.734h3.433v16.38h-3.433v-7.26h-2.977v7.26h-3.434zm14.02 0V24.69h-2.602v-2.488h8.616v2.488h-2.56v13.892h-3.454zm7.543 0v-16.38h5.349c1.013 0 1.838.189 2.477.566a3.3 3.3 0 011.415 1.598c.319.701.478 1.55.478 2.548 0 1.173-.208 2.09-.624 2.75a3.368 3.368 0 01-1.665 1.416c-.707.27-1.519.404-2.435.404h-1.561v7.098h-3.434zm3.434-9.444h1.207c.5 0 .881-.074 1.145-.222.278-.162.465-.411.562-.748.097-.337.146-.769.146-1.294 0-.5-.042-.917-.125-1.254a1.24 1.24 0 00-.5-.789c-.263-.189-.68-.283-1.248-.283h-1.187v4.59zm7.758 9.444V35.61H164v2.972h-2.997z" fill="#2C2C2C"/><circle cx="25" cy="30" r="25" fill="#FEC110"/><g clip-path="url(#clip0_11_538)" fill="#2C2C2C"><path d="M-42.295 29.197V22.59l-.988-2.655 1.358.37 1.297 2.284 4.63.494 3.52-.494s14.261-6.852 28.522-6.852c7.47 0 11.54.407 15.348 1.74 1.951.686 3.834 1.606 6.076 2.84v.006c1.927 1.062 4.112 2.359 6.829 3.921l.592.34c.198.117.402.228.605.345.309.18 8.89.124 15.373 1.173 6.483 1.05 10.619 3.643 10.619 3.643l.864 2.1.803.74-.617 6.05 1.666 2.1H43.157v-5.55a8.157 8.157 0 00-8.156-8.156 8.152 8.152 0 00-8.155 8.155v5.55h-38.582v-5.55a8.156 8.156 0 00-16.311 0v4.402l-15.923-2.611v-6.298l1.675-1.481zm63.202 7.964c.488 0 .92-.315 1.081-.778l1.803-5.402a.657.657 0 00-.413-.828.581.581 0 00-.204-.03h-1.075l-1.976 7.038h.784zM-2.967 25.245l21.547.865v-2.408s-7.409-5.371-14.447-5.371h-8.335l1.235 6.914zm-17.164-.37h12.78v-6.544c-5.123 0-14.076 3.89-14.076 3.89l1.296 2.654z"/><path d="M38.01 35.191l.636.012v-.018a3.72 3.72 0 00-.272-1.39l-1.254.52a2.3 2.3 0 01.173.864v.012h.717zm-.896.87c-.117.278-.284.53-.494.74l.957.964c.34-.34.605-.741.79-1.18l-1.253-.524zm-.494-2.488l.962-.958a3.646 3.646 0 00-1.179-.796l-.525 1.253c.279.118.531.291.742.5zm-1.617 3.896v1.358a3.58 3.58 0 001.39-.278l-.52-1.253a2.226 2.226 0 01-.87.173zm-1.544-2.284a1.544 1.544 0 103.087 0 1.544 1.544 0 00-3.087 0zm1.544-2.285h.006v-1.358h-.006a3.66 3.66 0 00-1.383.272l.519 1.26a2.17 2.17 0 01.864-.174zm-1.618 3.902l-.963.957c.34.34.74.605 1.179.79l.519-1.253a2.44 2.44 0 01-.735-.494zm-.95-4.204c-.34.334-.611.735-.797 1.18l1.254.525c.117-.278.284-.525.5-.741l-.957-.964zm.283 2.574h-1.359v.013c0 .475.093.95.278 1.395l1.254-.52a2.238 2.238 0 01-.173-.87v-.018z"/><path d="M35.003 27.776a7.406 7.406 0 017.408 7.408 7.406 7.406 0 01-7.408 7.409 7.406 7.406 0 01-7.409-7.409 7.406 7.406 0 017.409-7.408zm0 11.483a4.07 4.07 0 004.075-4.075 4.07 4.07 0 00-4.075-4.075 4.07 4.07 0 00-4.075 4.075 4.07 4.07 0 004.075 4.075z"/><path d="M38.01 35.191l.636.012v-.018a3.72 3.72 0 00-.272-1.39l-1.254.52a2.3 2.3 0 01.173.864v.012h.717zm-.896.87c-.117.278-.284.53-.494.74l.957.964c.34-.34.605-.741.79-1.18l-1.253-.524zm-.494-2.488l.962-.958a3.646 3.646 0 00-1.179-.796l-.525 1.253c.279.118.531.291.742.5zm-1.617 3.896v1.358a3.58 3.58 0 001.39-.278l-.52-1.253a2.226 2.226 0 01-.87.173zm-1.544-2.284a1.544 1.544 0 103.087 0 1.544 1.544 0 00-3.087 0zm1.544-2.285h.006v-1.358h-.006a3.66 3.66 0 00-1.383.272l.519 1.26a2.17 2.17 0 01.864-.174zm-1.618 3.902l-.963.957c.34.34.74.605 1.179.79l.519-1.253a2.44 2.44 0 01-.735-.494zm-.488-2.5c.118-.278.284-.525.5-.74l-.957-.964c-.34.334-.61.735-.796 1.18l1.253.524zm-1.537.87v.013c0 .475.093.95.279 1.395l1.253-.52a2.236 2.236 0 01-.173-.87v-.012H31.36v-.006z"/><path d="M33.459 35.185a1.544 1.544 0 103.087 0 1.544 1.544 0 00-3.087 0zm1.544 2.284c.296 0 .593-.056.87-.173l.52 1.253a3.695 3.695 0 01-1.39.278V37.47zm-1.618-.667c.21.21.464.383.741.494l-.519 1.254a3.708 3.708 0 01-1.179-.79l.957-.958zm3.729-.741l1.253.525c-.185.438-.45.839-.79 1.179l-.957-.963c.21-.21.377-.463.494-.741zm-4.395-.876c0 .303.055.599.172.87l-1.253.52a3.607 3.607 0 01-.278-1.396v-.012h1.359v.018zm5.655-1.383c.18.438.272.914.272 1.39v.018l-.636-.012-.723-.001v-.013a2.21 2.21 0 00-.172-.864l1.26-.518zm-5.94-1.204l.958.963c-.216.21-.383.463-.5.74l-1.254-.525c.191-.437.457-.838.797-1.178zm3.97-.772a3.7 3.7 0 011.18.797l-.963.957a2.345 2.345 0 00-.74-.5l.524-1.254zm-1.401-.284h.006V32.9h-.006c-.296 0-.593.056-.864.173l-.52-1.26a3.66 3.66 0 011.384-.271zm-51.881 3.649l.636.012v-.018a3.72 3.72 0 00-.272-1.39l-1.253.52a2.3 2.3 0 01.172.864v.012h.717zm-.895.87c-.117.278-.284.53-.5.74l.957.964c.34-.34.605-.741.79-1.18l-1.247-.524zm-.493-2.488l.963-.958a3.647 3.647 0 00-1.18-.796l-.524 1.253c.278.118.531.291.741.5zm-1.618 3.896l-.006 1.358h.006a3.58 3.58 0 001.39-.278l-.52-1.253a2.228 2.228 0 01-.87.173zm-1.544-2.284a1.543 1.543 0 103.087 0 1.543 1.543 0 00-3.087 0zm1.544-2.285h.012v-1.358h-.012a3.66 3.66 0 00-1.383.272l.512 1.26c.278-.118.575-.174.871-.174zm-1.618 3.902l-.963.957c.34.34.74.605 1.18.79l.518-1.253a2.443 2.443 0 01-.735-.494zm-.95-4.204a3.58 3.58 0 00-.796 1.18l1.253.525c.117-.278.284-.525.5-.741l-.957-.964zm.284 2.574h-1.358v.013c0 .475.093.95.278 1.395l1.254-.52a2.238 2.238 0 01-.173-.87v-.018z"/><path d="M-19.884 27.776a7.406 7.406 0 017.409 7.408 7.406 7.406 0 01-7.41 7.409 7.406 7.406 0 01-7.408-7.409 7.406 7.406 0 017.409-7.408zm0 11.483a4.07 4.07 0 004.075-4.075 4.07 4.07 0 00-4.075-4.075 4.07 4.07 0 00-4.075 4.075 4.07 4.07 0 004.075 4.075z"/><path d="M-16.878 35.191l.636.012v-.018a3.72 3.72 0 00-.272-1.39l-1.253.52a2.3 2.3 0 01.172.864v.012h.717zm-.895.87c-.117.278-.284.53-.5.74l.957.964c.34-.34.605-.741.79-1.18l-1.247-.524zm-.493-2.488l.963-.958a3.647 3.647 0 00-1.18-.796l-.524 1.253c.278.118.531.291.741.5zm-1.618 3.896l-.006 1.358h.006a3.58 3.58 0 001.39-.278l-.52-1.253a2.228 2.228 0 01-.87.173zm-1.544-2.284a1.543 1.543 0 103.087 0 1.543 1.543 0 00-3.087 0zm1.544-2.285h.012v-1.358h-.012a3.66 3.66 0 00-1.383.272l.512 1.26c.278-.118.575-.174.871-.174zm-1.618 3.902l-.963.957c.34.34.74.605 1.18.79l.518-1.253a2.443 2.443 0 01-.735-.494zm-.488-2.5c.118-.278.284-.525.5-.74l-.957-.964c-.34.334-.61.735-.796 1.18l1.254.524zm-1.536.87v.013c0 .475.093.95.278 1.395l1.254-.52a2.238 2.238 0 01-.173-.87v-.012h-1.36l.001-.006z"/><path d="M-21.428 35.185a1.543 1.543 0 103.087 0 1.543 1.543 0 00-3.087 0zm1.544 2.284c.296 0 .592-.056.87-.173l.52 1.253a3.694 3.694 0 01-1.39.278h-.006l.006-1.358zm-1.618-.667c.21.21.464.383.741.494l-.519 1.254a3.708 3.708 0 01-1.179-.79l.957-.958zm3.73-.741l1.253.525a3.69 3.69 0 01-.79 1.18l-.957-.963c.21-.21.376-.464.493-.742zm-4.396-.889v.013c0 .303.055.599.172.87l-1.253.52a3.606 3.606 0 01-.278-1.396v-.012h1.359v.005zm5.655-1.37c.18.438.272.914.272 1.39v.018l-.636-.012h-.722v-.013a2.19 2.19 0 00-.173-.864l1.26-.519zm-5.939-1.204l.957.963c-.216.21-.383.463-.5.74l-1.253-.525c.19-.437.456-.838.796-1.178zm3.97-.772c.438.185.839.457 1.179.797l-.963.957a2.343 2.343 0 00-.741-.5l.524-1.254zm-1.402-.284h.012V32.9h-.012c-.296 0-.593.056-.87.173l-.513-1.26a3.66 3.66 0 011.383-.271z"/></g><defs><clipPath id="clip0_11_538"><rect y="5" width="50" height="50" rx="25" fill="#fff"/></clipPath></defs></svg>