<svg width="24" height="24" fill="none" xmlns="http://www.w3.org/2000/svg"><path d="M11.252 14.164v-6.78h.9v4.555l1.107-.12c1.208-.13 2.323-.856 3.185-1.763a8.394 8.394 0 001.697-2.672h.872c-.69 1.794-2.095 3.132-3.134 3.733l-1.658.959 1.734.813c1.048.491 2.665 1.676 3.618 3.727h-1.075c-.915-2.115-2.781-3.764-5.247-4.009l-1.099-.11V16.6c-2.506-.138-4.411-1.074-5.744-2.62-1.314-1.525-2.15-3.736-2.36-6.595h1.08c.362 4.773 2.643 7.19 4.881 7.75l1.243.311v-1.28z" stroke="#2C2C2C" stroke-width="2"/></svg>