<svg width="60" height="61" fill="none" xmlns="http://www.w3.org/2000/svg"><path d="M56.648 12.486l3.057-2.195A9.901 9.901 0 0058.66 7.5a9.89 9.89 0 00-1.892-2.3l-3.43 1.55-.028-.015-.372-3.745a9.06 9.06 0 00-5.875 0l-.373 3.745-.027.015-3.43-1.55a9.9 9.9 0 00-1.893 2.3 9.9 9.9 0 00-1.045 2.79l3.057 2.195v.03l-3.057 2.196a9.9 9.9 0 001.045 2.79 9.898 9.898 0 001.892 2.3l3.43-1.55.028.014.372 3.746a9.061 9.061 0 005.875 0l.373-3.745.027-.016 3.43 1.55a9.907 9.907 0 001.893-2.3 9.898 9.898 0 001.045-2.788l-3.057-2.197v-.03zm.893 2.98a6.53 6.53 0 01-1.203 2.083l-2.229-1.006-.9-.38-.832.478-.836.48-.095.96-.242 2.433c-.795.15-1.61.15-2.406 0l-.242-2.434-.122-.975-.836-.479-.832-.478-.875.395-2.23 1.007a6.53 6.53 0 01-1.202-2.083l1.986-1.427.782-.591v-1.925l-.781-.56-1.987-1.428a6.53 6.53 0 011.203-2.083L45.89 8.46l.906.382.834-.484.829-.482.095-.953.242-2.434a6.54 6.54 0 012.406 0l.242 2.434.123.977.838.48.831.475.872-.394 2.229-1.007a6.53 6.53 0 011.203 2.083l-1.987 1.427-.781.591v1.924l.781.56 1.987 1.427zM50 10.626a1.876 1.876 0 100 3.752 1.876 1.876 0 000-3.752zM15.903 39.671a3.355 3.355 0 00-3.289 4.007 3.354 3.354 0 103.289-4.007zm0 4.706a1.352 1.352 0 110-2.703 1.352 1.352 0 010 2.702zm21.28-4.706a3.354 3.354 0 100 6.708 3.354 3.354 0 000-6.708zm0 4.706a1.352 1.352 0 01-.956-2.31 1.353 1.353 0 11.956 2.31zm5.489-18.29a4.825 4.825 0 00-4.219-3.556 6.629 6.629 0 00-.628-.03H15.263c-.135 0-.45.008-.581.024a4.825 4.825 0 00-4.267 3.561c-.317 1.175-.578 2.363-.838 3.55H3.572v5.589l4.788 1.662a75.774 75.774 0 00-.567 9.56v8.388a1.65 1.65 0 001.65 1.65h3.777a1.648 1.648 0 001.65-1.65V52.5h23.346v2.335a1.649 1.649 0 001.65 1.65h3.778a1.65 1.65 0 001.65-1.65v-8.388a75.7 75.7 0 00-.567-9.561l4.788-1.662v-5.589H43.51a77.155 77.155 0 00-.838-3.55zm-34.016 8.52l-2.834-.984v-1.738H9.12a74.33 74.33 0 00-.464 2.722zm4.172-7.871a2.327 2.327 0 012.056-1.719l.38-.017h22.561c.08 0 .24.003.338.012a2.358 2.358 0 012.094 1.72 73.382 73.382 0 011.703 8.253H11.127a73.58 73.58 0 011.701-8.249zm27.72 27.416L40.536 50H12.55l-.012 4.152h-2.245s.004-8.846.009-9.11a73.61 73.61 0 01.524-7.724H42.26a73.28 73.28 0 01.525 7.719l.007 9.115h-2.243zm6.716-22.267v1.738l-2.834.984a75.1 75.1 0 00-.464-2.722h3.298z" fill="#FEC110"/></svg>