<svg width="60" height="61" fill="none" xmlns="http://www.w3.org/2000/svg"><path fill-rule="evenodd" clip-rule="evenodd" d="M35 52.502l2.786-2.5H60v1.25a94.158 94.158 0 01-15.406 1.25H35zm-24.986-45l2.426 22.5 2.467-.446-2.11-19.555h34.405L44.54 34.69a8.743 8.743 0 01-.312 1.562l2.166 1.396a11.25 11.25 0 00.632-2.69l.265-2.456h1.002a10 10 0 009.943-8.932l.446-4.15a6.25 6.25 0 00-6.214-6.919h-3.02l.54-5H10.013zm39.163 7.5h3.29a3.748 3.748 0 013.728 4.15l-.445 4.151a7.487 7.487 0 01-7.458 6.698h-.733l1.619-15z" fill="#FEC110"/><mask id="a" fill="#fff"><path d="M7.208 48.463L9 50.256a16.876 16.876 0 0124.072 0l1.793-1.793a19.494 19.494 0 00-27.658 0zm7.23 7.23l1.748 1.749a6.824 6.824 0 019.7 0l1.749-1.749a9.23 9.23 0 00-13.198 0h.001zM0 41.255l1.787 1.787a27.066 27.066 0 0138.502 0l1.786-1.786a29.65 29.65 0 00-42.074 0H0z"/></mask><path d="M7.208 48.463L9 50.256a16.876 16.876 0 0124.072 0l1.793-1.793a19.494 19.494 0 00-27.658 0zm7.23 7.23l1.748 1.749a6.824 6.824 0 019.7 0l1.749-1.749a9.23 9.23 0 00-13.198 0h.001zM0 41.255l1.787 1.787a27.066 27.066 0 0138.502 0l1.786-1.786a29.65 29.65 0 00-42.074 0H0z" fill="#FEC110"/><path d="M7.208 48.463h-1v.414l.293.293.707-.707zM9 50.256l-.707.707.713.713.707-.719-.713-.7zm5.51-3.734l.387.922-.387-.922zm18.562 3.734l-.714.701.708.72.713-.714-.707-.707zm1.793-1.793l.707.707.705-.705-.703-.707-.71.705zm-6.34-4.258l.384-.924-.384.924zM7.208 48.463l-.71-.705-.29.292v.413h1zm7.23 7.23l.707-.707-.293-.293h-.414v1zm1.748 1.749l-.707.707.711.71.707-.714-.71-.703zm9.7 0l-.71.703.707.715.71-.711-.706-.707zm1.749-1.749l.707.707.7-.699-.692-.707-.715.7zm-13.198 0l-.715-.699-1.662 1.7h2.377v-1zM0 41.255l.624-.78-1.331 1.487.707-.707zm1.787 1.787l-.707.707.71.712.708-.716-.711-.703zm8.82-5.95l-.386-.922.386.922zm20.863 0l.385-.922-.386.922zm8.82 5.95l-.712.703.707.716.711-.712-.707-.707zm1.785-1.786l.707.708.705-.705-.703-.707-.709.704zm-9.644-6.478l-.384.923.384-.923zm-22.786 0l.384.923-.384-.923zM.001 41.256l-.624.782.701.56.633-.637-.71-.705zm6.5 7.914l1.793 1.793 1.414-1.414-1.793-1.793L6.5 49.17zm3.213 1.787a15.875 15.875 0 015.184-3.513l-.774-1.844a17.873 17.873 0 00-5.837 3.955l1.427 1.402zm5.184-3.513a15.874 15.874 0 016.139-1.235v-2c-2.374 0-4.724.473-6.913 1.39l.774 1.845zm6.139-1.235c2.108 0 4.195.42 6.139 1.235l.773-1.844a17.876 17.876 0 00-6.912-1.39v2zm6.139 1.235a15.874 15.874 0 015.183 3.513l1.427-1.402a17.872 17.872 0 00-5.837-3.955l-.773 1.844zm6.604 3.52l1.793-1.794-1.414-1.414-1.793 1.793 1.414 1.414zm1.795-3.206a20.494 20.494 0 00-6.665-4.477l-.768 1.847a18.493 18.493 0 016.014 4.04l1.42-1.41zm-6.665-4.477a20.496 20.496 0 00-7.873-1.572v2c2.439 0 4.853.482 7.105 1.419l.768-1.847zm-7.873-1.572c-2.703 0-5.379.534-7.874 1.572l.769 1.847a18.495 18.495 0 017.105-1.42v-2zm-7.874 1.572a20.495 20.495 0 00-6.665 4.477l1.42 1.41a18.493 18.493 0 016.014-4.04l-.769-1.847zm-6.955 5.182h2-2zM13.73 56.4l1.748 1.748 1.415-1.414-1.749-1.749L13.73 56.4zm3.166 1.744a5.824 5.824 0 011.897-1.278l-.77-1.846a7.826 7.826 0 00-2.548 1.718l1.421 1.406zm1.897-1.278a5.823 5.823 0 012.242-.45v-2a7.822 7.822 0 00-3.013.604l.77 1.846zm2.242-.45c.77 0 1.533.153 2.243.45l.77-1.846a7.82 7.82 0 00-3.012-.603v2zm2.243.45c.71.296 1.355.73 1.897 1.278l1.421-1.407a7.826 7.826 0 00-2.548-1.717l-.77 1.846zm3.315 1.282l1.748-1.749-1.414-1.414-1.749 1.749 1.415 1.414zm1.756-3.155a10.229 10.229 0 00-3.347-2.276l-.775 1.843a8.23 8.23 0 012.692 1.832l1.43-1.399zm-3.347-2.276a10.23 10.23 0 00-3.967-.8v2a8.23 8.23 0 013.192.643l.775-1.843zm-3.967-.8a10.22 10.22 0 00-3.967.8l.775 1.843a8.23 8.23 0 013.192-.644v-2zm-3.967.8a10.232 10.232 0 00-3.347 2.276l1.43 1.399a8.233 8.233 0 012.692-1.832l-.775-1.843zm-2.632 3.975h.001v-2 2zM-.707 41.963l1.787 1.786 1.414-1.414-1.787-1.787-1.414 1.414zm3.205 1.782a26.067 26.067 0 018.494-5.73l-.77-1.845a28.067 28.067 0 00-9.147 6.17l1.423 1.405zm8.494-5.73a26.07 26.07 0 0110.046-2.013v-2c-3.714 0-7.39.737-10.817 2.168l.77 1.845zm10.046-2.013c3.449 0 6.864.684 10.046 2.013l.77-1.845a28.07 28.07 0 00-10.816-2.168v2zm10.046 2.013a26.066 26.066 0 018.494 5.73L41 42.339a28.066 28.066 0 00-9.145-6.17l-.77 1.846zm9.912 5.734l1.786-1.785-1.414-1.415-1.786 1.786 1.414 1.414zm1.788-3.197a30.65 30.65 0 00-9.969-6.698l-.768 1.847a28.65 28.65 0 019.319 6.26l1.418-1.41zm-9.969-6.698a30.65 30.65 0 00-11.777-2.352v2c3.779 0 7.52.747 11.009 2.199l.768-1.847zm-11.777-2.352c-4.042 0-8.045.8-11.777 2.352l.768 1.847a28.651 28.651 0 0111.01-2.2v-2zM9.261 33.853a30.65 30.65 0 00-9.97 6.698l1.42 1.41a28.65 28.65 0 019.318-6.261l-.768-1.847zM.626 40.475H.624l-1.248 1.561v.002l1.25-1.563z" fill="#FEC110" mask="url(#a)"/></svg>