<svg width="40" height="47" fill="none" xmlns="http://www.w3.org/2000/svg"><path d="M20 20.076a9.584 9.584 0 10-9.583-9.582A9.594 9.594 0 0020 20.076zM20 3.41a7.082 7.082 0 11-7.083 7.084A7.091 7.091 0 0120 3.41zm19.267 29.569a27.055 27.055 0 00-13.67-7.373L20 34.191l-5.597-8.584A27.057 27.057 0 00.733 32.98L0 33.713V46.5h40V33.713l-.733-.734zM37.5 44.002h-35v-9.243c.028-.025.3-.295.328-.32a24.23 24.23 0 0110.55-6.003l2.915 4.408 2.595 3.935L20 38.459l1.125-1.695 2.566-3.891 2.932-4.437a24.227 24.227 0 0110.55 6.003c.028.025.3.294.328.32L37.5 44z" fill="#FEC110"/></svg>